<svg width="102" height="148" viewBox="0 0 102 148" fill="none" xmlns="http://www.w3.org/2000/svg">
<path d="M51 51.3889H0V104.319C0 128.444 19.4085 148 43.35 148H45.9C48.7167 148 51 145.699 51 142.861V51.3889Z" fill="#1C2540"/>
<path d="M6.86619e-06 43.6806C6.86619e-06 19.5565 19.4085 0 43.35 0H58.65C82.5915 0 102 19.5565 102 43.6806V51.3889C102 56.4975 97.89 60.6389 92.82 60.6389H6.86619e-06V43.6806Z" fill="#1C2540"/>
<path d="M91.29 73.3509C91.29 89.6029 78.2148 102.778 62.0858 102.778L32.64 102.778C14.6134 102.778 1.57593e-06 88.0529 0 69.8889L87.8542 69.8889C89.7517 69.8889 91.29 71.4389 91.29 73.3509Z" fill="#1C2540"/>
<path d="M6.86619e-06 60.6389H57.12C57.12 60.6389 51.408 60.6389 51.408 65.2639C51.408 69.8889 57.12 69.8889 57.12 69.8889H0L6.86619e-06 60.6389Z" fill="#1C2540"/>
</svg>
